<?xml version="1.0" encoding="UTF-8" standalone="no"?>
<!DOCTYPE svg PUBLIC "-//W3C//DTD SVG 1.1//EN" "http://www.w3.org/Graphics/SVG/1.1/DTD/svg11.dtd">
<!-- Created with Vectornator (http://vectornator.io/) -->
<svg height="100%" stroke-miterlimit="10" style="fill-rule:nonzero;clip-rule:evenodd;stroke-linecap:round;stroke-linejoin:round;" version="1.1" viewBox="0 0 340.2 340.2" width="100%" xml:space="preserve" xmlns="http://www.w3.org/2000/svg" xmlns:xlink="http://www.w3.org/1999/xlink">
<defs/>
<clipPath id="ArtboardFrame">
<rect height="340.2" width="340.2" x="0" y="0"/>
</clipPath>
<g clip-path="url(#ArtboardFrame)" id="Layer-1">
<path d="M170.401 161.124L322.324 161.124L324.398 98.7602C297.454 40.4959 238.722 0 170.401 0C129.757 0 92.4556 14.3042 63.2238 38.1506L63.1613 98.4648L170.401 161.124Z" fill="#ffba6c" fill-rule="nonzero" opacity="1" stroke="none"/>
<path d="M170.122 340.151C194.742 340.833 215.12 334.181 215.12 334.181C249.768 324.719 279.991 304.525 302.056 277.402C302.011 277.366 301.985 277.322 301.949 277.286C290.161 271.36 284.647 268.54 277.641 268.54C271.573 268.54 154.876 254.613 154.876 254.613L107.845 241.686C107.845 241.686 98.9079 241.686 63.1613 214.832C47.3255 202.936 17.8435 170.577 1.55196 152.209L1.55196 152.209C0.944268 158.09 0.604675 164.042 0.604675 170.076C0.604675 245.186 49.2112 308.92 116.638 331.45C116.638 331.45 145.501 339.468 170.122 340.151Z" fill="#fcbd75" fill-rule="nonzero" opacity="1" stroke="none"/>
<path d="M293.62 205.899C247.819 205.899 224.518 225.896 224.518 225.896L1.53793 152.216C1.53793 152.216-2.77001 190.236 7.2312 217.285C15.88 240.676 32.0752 232.814 78.7122 253.567C125.349 274.32 131.423 287.474 173.108 293.465C214.794 299.455 218.384 283.253 245.453 277.529C272.522 271.805 290.269 271.467 302.056 277.402C314.907 261.576 325.068 243.387 331.61 223.605C326.828 216.739 313.986 205.899 293.62 205.899Z" fill="#ffcd94" fill-rule="nonzero" opacity="1" stroke="none"/>
<path d="M1.53793 152.216C1.53793 152.216-2.03369 173.056 1.70886 192.38C5.04262 209.594 24.7568 214.069 35.9163 215.964C80.167 223.481 86.4297 219.34 138.276 231.586C190.122 243.832 191.682 254.743 243.301 264.949C295.392 275.248 315.247 258.777 315.247 258.777C331.61 233.398 336.641 206.086 338.091 196.934C322.685 195.71 304.352 194.037 283.766 191.492C234.271 185.375 176.764 174.908 176.764 174.908C97.2724 168.17 110.115 179.009 56.7872 172.419C37.4429 170.028 16.101 156.087 1.53793 152.216Z" fill="#fbb463" fill-rule="nonzero" opacity="1" stroke="none"/>
<path d="M63.2311 38.1493C35.4907 60.79 15.2326 92.1172 6.10351 127.903C22.109 130.498 42.6239 133.535 75.5119 137.599C110.388 141.91 156.906 153.067 202.539 158.034C238.588 161.957 262.366 161.203 292.088 163.157C309.371 164.293 325.729 165.668 340.113 166.948C339.661 142.608 334.017 119.579 324.394 98.7572C322.749 101.783 293.232 93.215 283.84 93.215C271.552 93.215 255.907 98.7611 239.15 98.7611C222.394 98.7611 211.96 107.457 201.906 107.457C191.852 107.457 186.418 112.825 159.608 100.516C132.798 88.2084 132.317 84.5259 107.755 67.2104C83.1935 49.8949 66.2248 62.7655 63.2311 38.1493Z" fill="#fec788" fill-rule="nonzero" opacity="1" stroke="none"/>
<path d="M6.10351 127.903C4.08339 135.822 2.40584 143.897 1.53793 152.216L5.38111 162.346C19.9442 166.217 37.4429 170.028 56.7872 172.419C110.115 179.009 97.2724 168.17 176.764 174.908C176.764 174.908 234.271 185.375 283.766 191.492C304.352 194.037 322.685 195.71 338.091 196.934C339.476 188.183 340.2 179.214 340.2 170.074C340.2 169.024 340.133 167.993 340.113 166.948C325.729 165.668 294.353 153.345 277.07 152.209C247.348 150.255 238.588 161.957 202.539 158.034C156.906 153.067 109.885 131.036 75.0086 126.725C42.1206 122.66 22.109 130.498 6.10351 127.903Z" fill="#fcbd75" fill-rule="nonzero" opacity="1" stroke="#000000" stroke-linecap="butt" stroke-linejoin="round" stroke-opacity="0" stroke-width="0.29314"/>
</g>
</svg>
