<?xml version="1.0" encoding="UTF-8" standalone="no"?>
<!DOCTYPE svg PUBLIC "-//W3C//DTD SVG 1.1//EN" "http://www.w3.org/Graphics/SVG/1.1/DTD/svg11.dtd">
<!-- Created with Vectornator (http://vectornator.io/) -->
<svg height="100%" stroke-miterlimit="10" style="fill-rule:nonzero;clip-rule:evenodd;stroke-linecap:round;stroke-linejoin:round;" version="1.1" viewBox="0 0 193.647 34.2036" width="100%" xml:space="preserve" xmlns="http://www.w3.org/2000/svg" xmlns:xlink="http://www.w3.org/1999/xlink">
<defs/>
<clipPath id="ArtboardFrame">
<rect height="34.2036" width="193.647" x="0" y="0"/>
</clipPath>
<g clip-path="url(#ArtboardFrame)" id="Layer-1">
<path d="M17.01-51.7899L27.5226-45.98L25.5157-58.2886L34.02-67.0059L22.2678-68.7999L17.01-80L11.7522-68.7999L0-67.0059L8.50575-58.2886L6.49745-45.98L17.01-51.7899Z" fill="#ff8638" fill-rule="nonzero" opacity="1" stroke="#000000" stroke-linecap="round" stroke-linejoin="round" stroke-opacity="0" stroke-width="0.29314"/>
<path d="M57.01-51.7899L67.5226-45.98L65.5157-58.2886L74.02-67.0059L62.2678-68.7999L57.01-80L51.7522-68.7999L40-67.0059L48.5057-58.2886L46.4974-45.98L57.01-51.7899Z" fill="#ff8638" fill-rule="nonzero" opacity="1" stroke="#000000" stroke-linecap="round" stroke-linejoin="round" stroke-opacity="0" stroke-width="0.29314"/>
<path d="M97.01-51.7899L107.523-45.98L105.516-58.2886L114.02-67.0059L102.268-68.7999L97.01-80L91.7522-68.7999L80-67.0059L88.5057-58.2886L86.4974-45.98L97.01-51.7899Z" fill="#ff8638" fill-rule="nonzero" opacity="1" stroke="#000000" stroke-linecap="round" stroke-linejoin="round" stroke-opacity="0" stroke-width="0.29314"/>
<path d="M137.01-51.7899L147.523-45.98L145.516-58.2886L154.02-67.0059L142.268-68.7999L137.01-80L131.752-68.7999L120-67.0059L128.506-58.2886L126.497-45.98L137.01-51.7899Z" fill="#ff8638" fill-rule="nonzero" opacity="1" stroke="#000000" stroke-linecap="round" stroke-linejoin="round" stroke-opacity="0" stroke-width="0.29314"/>
<path d="M177.01-51.7899L187.523-45.98L185.516-58.2886L194.02-67.0059L182.268-68.7999L177.01-80L171.752-68.7999L160-67.0059L168.506-58.2886L166.497-45.98L177.01-51.7899Z" fill="#ff8638" fill-rule="nonzero" opacity="1" stroke="#000000" stroke-linecap="round" stroke-linejoin="round" stroke-opacity="0" stroke-width="0.29314"/>
<path d="M0 0L0 13L11.75 11.1875L17 0L0 0ZM17 0L22.2812 11.1875L34.0312 13L25.5312 21.7188L27.5312 34.0312L46.5 34.0312L48.5 21.7188L40 13L51.75 11.1875L57 0L17 0ZM57 0L62.2812 11.1875L74.0312 13L65.5312 21.7188L67.5312 34.0312L86.5 34.0312L88.5 21.7188L80 13L91.75 11.1875L97 0L57 0ZM97 0L102.281 11.1875L114.031 13L105.531 21.7188L107.531 34.0312L126.5 34.0312L128.5 21.7188L120 13L131.75 11.1875L137 0L97 0ZM137 0L142.281 11.1875L154.031 13L145.531 21.7188L147.531 34.0312L166.5 34.0312L168.5 21.7188L160 13L171.75 11.1875L177 0L137 0ZM177 0L182.281 11.1875L193.656 12.9375L193.656 0L177 0ZM193.656 13.375L185.531 21.7188L187.531 34.0312L193.656 34.0312L193.656 13.375ZM187.531 34.0312L177 28.2188L166.5 34.0312L187.531 34.0312ZM147.531 34.0312L137 28.2188L126.5 34.0312L147.531 34.0312ZM107.531 34.0312L97 28.2188L86.5 34.0312L107.531 34.0312ZM67.5312 34.0312L57 28.2188L46.5 34.0312L67.5312 34.0312ZM27.5312 34.0312L17 28.2188L6.5 34.0312L27.5312 34.0312ZM6.5 34.0312L8.5 21.7188L0 13L0 34.0312L6.5 34.0312Z" fill="#ffffff" fill-rule="nonzero" opacity="1" stroke="#000000" stroke-linecap="butt" stroke-linejoin="round" stroke-opacity="0" stroke-width="0.29314"/>
<path d="M0-80L193.647-80L193.647-40L0-40L0-80Z" fill="#ff8638" fill-rule="nonzero" opacity="1" stroke="#000000" stroke-linecap="butt" stroke-linejoin="round" stroke-opacity="0" stroke-width="0.29314"/>
</g>
</svg>
