<?xml version="1.0" encoding="UTF-8" standalone="no"?>
<!DOCTYPE svg PUBLIC "-//W3C//DTD SVG 1.1//EN" "http://www.w3.org/Graphics/SVG/1.1/DTD/svg11.dtd">
<!-- Created with Vectornator (http://vectornator.io/) -->
<svg height="163.00244761830345mm" stroke-miterlimit="10" style="fill-rule:nonzero;clip-rule:evenodd;stroke-linecap:round;stroke-linejoin:round;" version="1.1" viewBox="0 0 267.774 462.112" width="94.4530264756324mm" xml:space="preserve" xmlns="http://www.w3.org/2000/svg" xmlns:xlink="http://www.w3.org/1999/xlink">
<defs/>
<clipPath id="ArtboardFrame">
<rect height="462.112" width="267.774" x="0" y="0"/>
</clipPath>
<g clip-path="url(#ArtboardFrame)" id="Layer-1">
<g opacity="1">
<g opacity="1">
<path d="M165.563 289.599L174.823 264.168L101.97 264.865L111.715 290.114C111.715 290.114 113.345 294.851 137.9 295.408C163.24 295.165 165.563 289.599 165.563 289.599Z" fill="#0146c0" fill-rule="nonzero" opacity="1" stroke="none"/>
<path d="M221.867 283.969L166.797 276.309L178.808 221.246L229.677 268.146L221.867 283.969ZM49.1403 283.969L106.1 276.867L93.5524 219.062L38.0968 268.146L49.1403 283.969Z" fill="#0146c0" fill-rule="nonzero" opacity="1" stroke="none"/>
<path d="M135.865 0.0312528C125.769 1.12238 106.831 28.0272 92.9869 70.9248C88.3569 83.6402 85.341 99.508 85.4925 115.345C85.9472 162.858 99.6629 272.015 99.6629 272.015C99.6629 272.015 101.216 273.677 102.826 274.911C106.44 277.68 114.756 281.374 137.764 281.154C171.022 280.836 175.683 271.288 175.683 271.288C175.683 271.288 177.173 256.787 178.696 241.963C180.219 227.139 181.775 211.993 181.775 211.993C181.775 211.993 188.261 138.109 188.436 114.36C188.284 98.5228 184.965 82.7157 180.877 69.2917C165.43 27.4664 146.133-1.07845 135.865 0.0312528ZM135.568 193.083C126.072 193.274 115.854 151.854 114.563 127.769C113.272 103.684 123.836 95.5499 132.988 94.8561C142.139 94.1624 151.254 102.92 152.545 127.005C153.837 151.09 145.063 192.892 135.568 193.083Z" fill="#0146c0" fill-rule="nonzero" opacity="1" stroke="none"/>
</g>
</g>
<path d="M112.683 527.094C113.985 525.358 113.736 526.384 112.683 523.928" fill="none" opacity="1" stroke="#000000" stroke-linecap="round" stroke-linejoin="round" stroke-width="3"/>
<path d="M203.662 462.112L64.1123 462.112C41.0307 462.112 22.2473 443.329 22.2473 420.247C22.2473 402.189 33.8997 386.295 50.6317 380.615C52.9343 364.999 55.117 362.073 65.8567 353.488C76.5965 344.903 108.008 344.146 108.008 344.146C108.008 344.146 111.889 295.984 112.13 296.088C123.822 301.134 129.591 300.585 143.222 300.415C156.853 300.245 166.655 295.408 166.655 295.408L170.707 342.83C170.707 342.83 173.594 339.669 182.632 337.201C209.105 332.275 231.572 352.984 231.572 378.382C231.572 381.606 231.167 384.871 230.372 388.095C239.945 396.021 245.527 407.701 245.527 420.247C245.527 443.329 226.744 462.112 203.662 462.112Z" fill="#000000" fill-opacity="0.2" fill-rule="nonzero" opacity="1" stroke="none"/>
</g>
</svg>
